<svg xmlns="http://www.w3.org/2000/svg" viewBox="0 0 256 192" width="256" height="192">
  <defs>
    <linearGradient id="roof3" x1="0" y1="0" x2="1" y2="1">
      <stop offset="0%" stop-color="#0b7285"/>
      <stop offset="100%" stop-color="#0ca678"/>
    </linearGradient>
    <linearGradient id="wall3" x1="0" y1="0" x2="0" y2="1">
      <stop offset="0%" stop-color="#f8f9fa"/>
      <stop offset="100%" stop-color="#f1f3f5"/>
    </linearGradient>
  </defs>
  <rect x="0" y="0" width="256" height="192" fill="#0b0f14"/>
  <g transform="translate(10,14)">
    <polygon points="118,0 0,52 236,52" fill="url(#roof3)"/>
    <rect x="16" y="52" width="204" height="112" rx="6" fill="url(#wall3)"/>
    <!-- étage 1 -->
    <rect x="30" y="70" width="60" height="24" rx="3" fill="#74c0fc"/>
    <rect x="166" y="70" width="44" height="24" rx="3" fill="#74c0fc"/>
    <!-- étage 2 -->
    <rect x="30" y="100" width="60" height="24" rx="3" fill="#74c0fc"/>
    <rect x="166" y="100" width="44" height="24" rx="3" fill="#74c0fc"/>
    <!-- étage 3 -->
    <rect x="30" y="130" width="60" height="24" rx="3" fill="#74c0fc"/>
    <rect x="166" y="130" width="44" height="24" rx="3" fill="#74c0fc"/>
    <!-- porte -->
    <rect x="106" y="92" width="44" height="72" rx="3" fill="#343a40"/>
    <circle cx="144" cy="128" r="2" fill="#868e96"/>
  </g>
</svg>
